<svg width="24" height="24" viewBox="0 0 24 24" fill="none" xmlns="http://www.w3.org/2000/svg">
<g id="icon/log-out">
<path id="Shape" fill-rule="evenodd" clip-rule="evenodd" d="M13.2929 8.29289C13.6834 7.90237 14.3166 7.90237 14.7071 8.29289L19.7071 13.2929C20.0976 13.6834 20.0976 14.3166 19.7071 14.7071L14.7071 19.7071C14.3166 20.0976 13.6834 20.0976 13.2929 19.7071C12.9024 19.3166 12.9024 18.6834 13.2929 18.2929L16.5858 15L5 15C4.44772 15 4 14.5523 4 14C4 13.4477 4.44772 13 5 13L16.5858 13L13.2929 9.70711C12.9024 9.31658 12.9024 8.68342 13.2929 8.29289Z" fill="#222222"/>
<path id="Rectangle 6744" d="M4 5C4 4.44771 4.44772 4 5 4V4C5.55228 4 6 4.44772 6 5V14C6 14.5523 5.55228 15 5 15V15C4.44772 15 4 14.5523 4 14V5Z" fill="#222222"/>
</g>
</svg>
