<svg width="112" height="16" viewBox="0 0 112 16" fill="none" xmlns="http://www.w3.org/2000/svg">
<g id="logo 1" clip-path="url(#clip0_2583_6764)">
<path id="Vector" d="M24.6565 0C20.2264 0 18.3483 2.7224 16.394 5.73184C16.0891 6.1899 15.7933 6.6617 15.4793 7.12892L15.2445 7.48163C15.1287 7.65569 15.0143 7.82975 14.9015 8.00229C13.0005 10.9033 11.5477 13.5097 8.13295 13.5097C5.02002 13.5097 2.49248 11.0392 2.49248 8.00229C2.49248 4.96536 5.02612 2.49489 8.13295 2.49489C9.77479 2.49489 10.9623 3.09648 11.9654 4.04466C12.2084 4.27771 12.5339 4.40453 12.8702 4.39723C13.2066 4.38993 13.5263 4.2491 13.7589 4.00573C13.9916 3.76235 14.1182 3.43637 14.111 3.09948C14.1037 2.7626 13.9631 2.44242 13.7201 2.20937C12.3587 0.887108 10.6605 0 8.13143 0C3.64801 0 0 3.58966 0 8.00076C0 12.4119 3.64801 16 8.13143 16C12.5615 16 14.4411 13.2776 16.394 10.2682C16.6989 9.8101 16.9961 9.3383 17.3086 8.87108L17.5449 8.5199C17.6623 8.34583 17.7766 8.1733 17.8894 8.00076C19.7904 5.09972 21.2432 2.49337 24.6565 2.49337C27.771 2.49337 30.297 4.96231 30.297 8.00076C30.297 11.0392 27.7633 13.5082 24.6565 13.5082C22.1518 13.5082 20.7021 12.1019 19.356 10.2086C19.1608 9.93225 18.9657 9.6452 18.7721 9.35051L18.545 9.691L18.3102 10.0422C17.958 10.5659 17.6227 11.0911 17.2858 11.6072C17.4748 11.8775 17.6654 12.1431 17.862 12.3997C19.4261 14.4518 21.3164 16 24.6565 16C29.1414 16 32.7879 12.4103 32.7894 8.00076C32.791 3.59118 29.1414 0 24.6565 0Z" fill="#1A5AB2"/>
<path id="Vector_2" d="M43.5822 4.1315V12.8896L41.7696 12.8774V4.1315H38.5332V2.46875H46.8216V4.1315H43.5822Z" fill="#1A5AB2"/>
<path id="Vector_3" d="M56.1363 3.6753C56.9941 4.69321 57.423 6.00937 57.423 7.62377C57.423 9.23817 56.9941 10.5574 56.1363 11.5814C55.2796 12.5993 54.1266 13.1083 52.6773 13.1083C51.2281 13.1083 50.0731 12.5993 49.2123 11.5814C48.3494 10.5635 47.918 9.24428 47.918 7.62377C47.918 6.00326 48.3494 4.6871 49.2123 3.6753C50.0741 2.65739 51.2291 2.14844 52.6773 2.14844C54.1256 2.14844 55.2786 2.65739 56.1363 3.6753ZM54.7643 10.3767C55.2725 9.66417 55.5265 8.74805 55.5265 7.62835C55.5265 6.53104 55.2725 5.62561 54.7643 4.91206C54.5248 4.58152 54.2106 4.31249 53.8473 4.12698C53.484 3.94147 53.082 3.84476 52.6743 3.84476C52.2665 3.84476 51.8646 3.94147 51.5013 4.12698C51.138 4.31249 50.8238 4.58152 50.5843 4.91206C50.0822 5.6246 49.8312 6.53003 49.8312 7.62835C49.8312 8.74805 50.0822 9.66417 50.5843 10.3767C50.8225 10.709 51.1364 10.9797 51.4998 11.1664C51.8632 11.3531 52.2658 11.4505 52.6743 11.4505C53.0827 11.4505 53.4853 11.3531 53.8488 11.1664C54.2122 10.9797 54.526 10.709 54.7643 10.3767Z" fill="#1A5AB2"/>
<path id="Vector_4" d="M67.6849 8.1856C68.0813 8.64366 68.2566 9.25441 68.2108 10.0178C68.1929 10.415 68.086 10.803 67.8981 11.1532C67.7102 11.5033 67.4462 11.8068 67.1254 12.0409C66.4465 12.5672 65.5954 12.8308 64.572 12.8318H60.084V2.41406H64.5522C65.476 2.41406 66.2169 2.64767 66.7748 3.121C67.2954 3.52808 67.6433 4.11703 67.7489 4.77001C67.8506 5.41638 67.756 5.95435 67.4654 6.38391C67.238 6.7526 66.928 7.06314 66.5599 7.29086C66.9105 7.43133 67.2824 7.72907 67.6849 8.1856ZM65.4607 6.23885C65.5961 6.12625 65.7034 5.98357 65.7741 5.82215C65.8447 5.66072 65.8768 5.48502 65.8678 5.30899C65.8706 5.14255 65.8346 4.97775 65.7626 4.82771C65.6906 4.67767 65.5846 4.54655 65.4531 4.44479C65.1211 4.20096 64.7147 4.08057 64.3037 4.1043H61.8828V6.5656H64.2899C64.7976 6.5656 65.1863 6.46025 65.4607 6.23885ZM65.8678 10.7141C66.0028 10.5827 66.1103 10.4256 66.1839 10.252C66.2575 10.0785 66.2956 9.89188 66.2961 9.7033C66.2926 9.3287 66.144 8.9701 65.8815 8.70321C65.6056 8.39784 65.1436 8.25279 64.4988 8.25279H61.8828V11.1584H64.4424C65.1055 11.1584 65.5827 11.0118 65.8678 10.7141Z" fill="#1A5AB2"/>
<path id="Vector_5" d="M70.7832 12.8364V2.42627H78.0335V4.10582H72.5637V6.68164H77.7682V8.34592H72.5637V11.1584L78.1859 11.1462V12.8364H70.7832Z" fill="#1A5AB2"/>
<path id="Vector_6" d="M89.5897 9.37032C89.424 10.1846 88.9697 11.0117 88.2268 11.8515C87.4839 12.6912 86.4295 13.1116 85.0636 13.1127C83.597 13.1127 82.4369 12.6037 81.5832 11.5858C80.7296 10.5679 80.3027 9.24868 80.3027 7.62816C80.3027 6.01274 80.7296 4.69659 81.5832 3.6797C82.4369 2.6628 83.597 2.15385 85.0636 2.15283C86.4935 2.15283 87.5682 2.58493 88.2878 3.44914C89.0073 4.31334 89.4271 5.09154 89.547 5.78371L87.5957 5.79746C87.4554 5.3106 87.2014 4.86417 86.8548 4.49504C86.4737 4.06141 85.8949 3.84409 85.1184 3.84307C84.7079 3.83138 84.3007 3.92027 83.9322 4.102C83.5637 4.28374 83.2451 4.55284 83.004 4.88592C82.4776 5.57911 82.2144 6.49523 82.2144 7.63427C82.2144 8.77331 82.4776 9.69757 83.004 10.4071C83.2441 10.7416 83.5628 11.0119 83.9318 11.194C84.3007 11.3761 84.7088 11.4645 85.12 11.4514C85.8578 11.4514 86.432 11.2224 86.8426 10.7643C87.219 10.3701 87.4974 9.89247 87.6551 9.37032H89.5897Z" fill="#1A5AB2"/>
<path id="Vector_7" d="M99.8745 3.6753C100.733 4.69321 101.162 6.00937 101.161 7.62377C101.16 9.23817 100.731 10.5574 99.8745 11.5814C99.0178 12.5993 97.8649 13.1083 96.4156 13.1083C94.9664 13.1083 93.8114 12.5993 92.9506 11.5814C92.0877 10.5635 91.6562 9.24428 91.6562 7.62377C91.6562 6.00326 92.0877 4.6871 92.9506 3.6753C93.8103 2.65739 94.9654 2.14844 96.4156 2.14844C97.8659 2.14844 99.0188 2.65739 99.8745 3.6753ZM98.5026 10.3767C99.0108 9.66417 99.2649 8.74805 99.2649 7.62835C99.2649 6.53104 99.0108 5.62561 98.5026 4.91206C98.2631 4.58152 97.9489 4.31249 97.5856 4.12698C97.2223 3.94147 96.8204 3.84476 96.4126 3.84476C96.0048 3.84476 95.6029 3.94147 95.2396 4.12698C94.8763 4.31249 94.5621 4.58152 94.3226 4.91206C93.8205 5.6246 93.5695 6.53003 93.5695 7.62835C93.5695 8.74805 93.8205 9.66417 94.3226 10.3767C94.5608 10.709 94.8747 10.9797 95.2381 11.1664C95.6015 11.3531 96.0041 11.4505 96.4126 11.4505C96.8211 11.4505 97.2236 11.3531 97.5871 11.1664C97.9505 10.9797 98.2643 10.709 98.5026 10.3767Z" fill="#1A5AB2"/>
<path id="Vector_8" d="M109.798 12.8624L105.682 5.43572L105.644 12.8624H103.814V2.42627H105.994L110.186 9.85599V2.42627H111.999V12.8624H109.798Z" fill="#1A5AB2"/>
</g>
<defs>
<clipPath id="clip0_2583_6764">
<rect width="112" height="16" fill="white"/>
</clipPath>
</defs>
</svg>
